<svg width="5000" height="4000" xmlns="http://www.w3.org/2000/svg" preserveAspectRatio="xMidYMid meet" version="1.0">

 <g>
  <title>Layer 1</title>
  <g id="svg_1" fill="#000000" transform="translate(0 4000) scale(0.1 -0.1)">
   <path fill="#2ed6af" id="svg_2" d="m18072,23331c-3785,-2259 -6887,-4112 -6892,-4117c-5,-5 549,-251 1371,-608c1320,-574 1379,-601 1379,-625c0,-14 16,-546 35,-1181c19,-635 35,-1167 35,-1181c0,-24 -7,-28 -99,-58c-229,-75 -392,-216 -451,-392c-18,-52 -21,-81 -18,-155c3,-82 8,-100 42,-169c70,-141 214,-254 397,-312c49,-15 89,-32 89,-36c0,-4 -169,-440 -377,-967c-207,-528 -374,-962 -372,-964c6,-5 2159,60 2165,66c3,3 -188,424 -425,934c-236,511 -431,935 -433,943c-2,8 16,20 49,31c238,83 411,257 444,449c47,266 -189,527 -542,600l-57,12l-6,162c-4,89 -18,549 -31,1022c-13,473 -26,899 -28,948c-2,48 0,87 4,87c5,0 666,-286 1470,-635c804,-350 1463,-634 1465,-632c2,1 -175,634 -392,1406c-217,772 -394,1404 -392,1406c2,2 1913,607 4248,1346c4074,1288 4246,1342 4285,1331c57,-15 8459,-2673 8463,-2677c2,-2 -175,-634 -392,-1406c-217,-772 -394,-1405 -392,-1406c2,-2 1379,594 3059,1324c2303,1001 3053,1331 3044,1339c-7,7 -3110,1859 -6895,4118c-5775,3444 -6887,4104 -6903,4095c-13,-6 -25,-6 -38,1c-11,5 -21,10 -23,9c-2,0 -3100,-1849 -6886,-4108z"/>
  </g>
 </g>
</svg>